/* XPM */
static char *graphic[] = {
/* width height num_colors chars_per_pixel */
"16 16 171 2", 
/* colors */
"   c None",
".  c #06FDCE",
"X  c None",
"o  c #36DFE2",
"O  c None",
"+  c None",
"@  c #2CE4DE",
"#  c None",
"$  c #42D8E8",
"%  c #12F4D4",
"&  c None",
"*  c None",
"=  c None",
"-  c None",
";  c None",
":  c #4CD3EB",
">  c None",
",  c None",
"<  c None",
"1  c None",
"2  c #11F3D2",
"3  c #37E1E3",
"4  c #48D6E9",
"5  c #01FDCD",
"6  c None",
"7  c #4AD7EA",
"8  c #0FF4D1",
"9  c #3EDBE5",
"0  c None",
"q  c None",
"w  c None",
"e  c #30E2E0",
"r  c #45D7EA",
"t  c #4BD4EB",
"y  c #22ECDB",
"u  c #3DDBE6",
"i  c #1CEFD8",
"p  c #1DEDD8",
"a  c #15F3D3",
"s  c #26E8DB",
"d  c None",
"f  c #08FACE",
"g  c #2CE7DF",
"h  c None",
"j  c None",
"k  c None",
"l  c #4DD3EE",
"z  c #2BE5DE",
"x  c None",
"c  c #10F6D3",
"v  c None",
"b  c #03FDCE",
"n  c #22ECD9",
"m  c None",
"M  c #09FACF",
"N  c #24EBDC",
"B  c #1CF0D7",
"V  c #26E8DC",
"C  c #24EBDA",
"Z  c #20EBD9",
"A  c #0DF8D1",
"S  c #10F6D3",
"D  c #47D6EB",
"F  c None",
"G  c #0CF8D2",
"H  c #05FCCE",
"J  c None",
"K  c None",
"L  c None",
"P  c #1BEED9",
"I  c None",
"U  c None",
"Y  c #41DAE7",
"T  c None",
"R  c #09F8CF",
"E  c None",
"W  c None",
"Q  c None",
"!  c None",
"~  c #4FD0EE",
"^  c None",
"/  c #3CDBE6",
"(  c None",
")  c #1DEDD7",
"_  c None",
"`  c #01FCCD",
"'  c #04FDCD",
"]  c #17F1D5",
"[  c None",
"{  c #03FBCE",
"}  c #09FAD0",
"|  c None",
" . c None",
".. c None",
"X. c None",
"o. c None",
"O. c #0AFAD1",
"+. c #48D4EB",
"@. c None",
"#. c #01FDCB",
"$. c None",
"%. c None",
"&. c #01FFCC",
"*. c #38DFE2",
"=. c None",
"-. c #01FDCB",
";. c #4CD2ED",
":. c #01FDCC",
">. c #14F5D4",
",. c #01FDCD",
"<. c #43D9E9",
"1. c #3ADEE5",
"2. c None",
"3. c #01FDCC",
"4. c None",
"5. c None",
"6. c #02FCCE",
"7. c #15F2D5",
"8. c #23EBDB",
"9. c None",
"0. c None",
"q. c #02FCCB",
"w. c #01FDCD",
"e. c None",
"r. c #22EBDA",
"t. c #15F2D4",
"y. c None",
"u. c None",
"i. c None",
"p. c #0FF5D2",
"a. c None",
"s. c None",
"d. c #01FDCD",
"f. c #31E3E1",
"g. c None",
"h. c None",
"j. c None",
"k. c None",
"l. c None",
"z. c None",
"x. c #01FDCB",
"c. c None",
"v. c None",
"b. c #4DD4EC",
"n. c #33E2E2",
"m. c None",
"M. c #01FDCC",
"N. c None",
"B. c #09FBCF",
"V. c None",
"C. c None",
"Z. c None",
"A. c None",
"S. c #01FDCD",
"D. c #28E8DB",
"F. c #25EADC",
"G. c None",
"H. c None",
"J. c None",
"K. c None",
"L. c #1FEDDA",
"P. c #01FDCD",
"I. c None",
"U. c None",
"Y. c #2AE7DD",
"T. c #33E2E2",
"R. c None",
"E. c #0DF7D2",
"W. c None",
"Q. c None",
"!. c None",
/* pixels */
"            u.v + K             ",
"          h.F ;.~ j N.          ",
"      W = 9 $ r t b.l & 0       ",
"    $.i.n.*./ m.U 4 +.: J 1     ",
"  X.8.D.Y.E o.    | - <.D 7 %.  ",
"  ;  .y C s G.X Q.k o u Y R.e.  ",
"  z.a h p Z r.Z.4.@ e 3 d 1.V.  ",
"  6 p.% >.y.P ) n V K.g f.T.[   ",
"  H.} v.c S a.] B x L.F.l.z g.  ",
"  c.{ 2.J.!.G ..=.t.< 5.I.N q   ",
"  s.` ^   * B.O.E.8 9.  C.i ,   ",
"  # M.d.T j.' . M R O w 2 7.A.  ",
"  W.! ,.P.0.S.w.b H m f A > W.  ",
"      ( @.x.5 w.3.q.6.U.(       ",
"        Q L -.:.#.&._ Q         ",
"            k.I I k.            "
};
