/* XPM */
static char *graphic[] = {
/* width height num_colors chars_per_pixel */
"48 48 797 2", 
/* colors */
"   c None",
".  c #31E1E0",
"X  c #2CE4DD",
"o  c None",
"O  c #2CE4DE",
"+  c None",
"@  c None",
"#  c #46D8EA",
"$  c None",
"%  c #0BF8D3",
"&  c None",
"*  c #05FBCD",
"=  c #01FDCD",
"-  c #51D2EE",
";  c None",
":  c #0EF6D0",
">  c #1CEFD9",
",  c #0CF7D0",
"<  c #01FDCB",
"1  c #01FDCC",
"2  c None",
"3  c #4FD3EE",
"4  c #53CFEF",
"5  c #42DAE8",
"6  c #0CF7D0",
"7  c #0AF8D0",
"8  c #01FDCC",
"9  c #2AE7DD",
"0  c #0BF8D1",
"q  c None",
"w  c None",
"e  c #13F4D5",
"r  c #0EF8D2",
"t  c #0CF9D2",
"y  c #01FDCB",
"u  c None",
"i  c #01FDCB",
"p  c #44D7E7",
"a  c #21ECD9",
"s  c #35DFE1",
"d  c #21EAD9",
"f  c None",
"g  c None",
"h  c #24EBDC",
"j  c #35E2E2",
"k  c #26E7DC",
"l  c None",
"z  c #01FDCD",
"x  c #10F5D2",
"c  c None",
"v  c None",
"b  c #53D1EF",
"n  c #34E2E2",
"m  c #10F5D1",
"M  c #1FEDD9",
"N  c #0EF6D1",
"B  c #01FDCB",
"V  c #03FCCD",
"C  c None",
"Z  c #44D9E9",
"A  c None",
"S  c #01FDCB",
"D  c #30E4DF",
"F  c #0FF4D2",
"G  c None",
"H  c #09F9CF",
"J  c #4AD6EA",
"K  c #10F7D3",
"L  c None",
"P  c #03FECD",
"I  c None",
"U  c #11F5D2",
"Y  c #01FFCD",
"T  c None",
"R  c #01FDCD",
"E  c None",
"W  c #3CDCE7",
"Q  c None",
"!  c #03FCCC",
"~  c #37DEE2",
"^  c None",
"/  c None",
"(  c None",
")  c None",
"_  c #25EADC",
"`  c #48D7EA",
"'  c None",
"]  c #05FBCC",
"[  c #10F5D2",
"{  c #1FEDD8",
"}  c #01FDCC",
"|  c None",
" . c #01FDCD",
".. c None",
"X. c #46D8EA",
"o. c #39DFE4",
"O. c #4FD2ED",
"+. c #36E1E2",
"@. c #01FDCC",
"#. c None",
"$. c None",
"%. c None",
"&. c #2CE5DD",
"*. c #42D8E9",
"=. c #12F6D4",
"-. c #05FDCE",
";. c #01FDCD",
":. c None",
">. c None",
",. c #03FECE",
"<. c None",
"1. c None",
"2. c None",
"3. c None",
"4. c #33E1E1",
"5. c None",
"6. c None",
"7. c #07FACD",
"8. c #01FDCD",
"9. c #4AD6EB",
"0. c #2CE4DF",
"q. c #2BE7DF",
"w. c #10F5D3",
"e. c None",
"r. c #01FDCD",
"t. c #48D5EA",
"y. c None",
"u. c #48D7EB",
"i. c #01FDCD",
"p. c None",
"a. c #1FEED9",
"s. c None",
"d. c #07FCCF",
"f. c #05FDCF",
"g. c None",
"h. c None",
"j. c None",
"k. c #3BDCE4",
"l. c #1EECD8",
"z. c #1EEED8",
"x. c None",
"c. c None",
"v. c #12F4D4",
"b. c #4CD5EC",
"n. c #43DAE8",
"m. c #39DEE3",
"M. c #44D8E8",
"N. c #3DDBE7",
"B. c #07FACE",
"V. c #4AD6EC",
"C. c #3DDDE6",
"Z. c None",
"A. c #05FBCE",
"S. c #06FBCE",
"D. c #14F3D5",
"F. c #3DDBE6",
"G. c None",
"H. c None",
"J. c #09FBD0",
"K. c None",
"L. c None",
"P. c #02FDCC",
"I. c #1AEED6",
"U. c None",
"Y. c #4ED5ED",
"T. c None",
"R. c None",
"E. c #14F1D5",
"W. c #4ED4ED",
"Q. c #10F6D3",
"!. c #3FDCE7",
"~. c None",
"^. c #0BF8D2",
"/. c None",
"(. c #30E4E1",
"). c None",
"_. c #1BECD6",
"`. c None",
"'. c None",
"]. c #0BF9CF",
"[. c #36E1E3",
"{. c #23E9DC",
"}. c None",
"|. c #0BF6D1",
" X c None",
".X c #4ED2EC",
"XX c None",
"oX c None",
"OX c #0FF6D2",
"+X c #20EBD8",
"@X c #41D9E6",
"#X c None",
"$X c #1CEFD7",
"%X c #32E1E1",
"&X c #2BE5DE",
"*X c None",
"=X c #1FEBDA",
"-X c None",
";X c #09F9D0",
":X c None",
">X c #50D3EE",
",X c #52D0ED",
"<X c None",
"1X c #41DBE8",
"2X c #34E2E2",
"3X c None",
"4X c None",
"5X c #08FACE",
"6X c None",
"7X c #27E7DC",
"8X c #24EBDC",
"9X c None",
"0X c None",
"qX c #25EBDD",
"wX c None",
"eX c None",
"rX c #4FD2EE",
"tX c None",
"yX c None",
"uX c #24EBD9",
"iX c None",
"pX c None",
"aX c #53D0EE",
"sX c #45D9EA",
"dX c #4AD5E9",
"fX c #0DF5D2",
"gX c None",
"hX c None",
"jX c #52D2EF",
"kX c #45D9E9",
"lX c #43DAE9",
"zX c #29E8DD",
"xX c #36E1E3",
"cX c None",
"vX c #15F3D5",
"bX c None",
"nX c #27E9DD",
"mX c None",
"MX c #1AF0D7",
"NX c #1CEFD8",
"BX c None",
"VX c None",
"CX c None",
"ZX c None",
"AX c #16F3D5",
"SX c #3ADFE5",
"DX c None",
"FX c #49D5EA",
"GX c None",
"HX c #36DFE2",
"JX c #42D9E6",
"KX c #47D8EA",
"LX c #2AE8DE",
"PX c #38E0E4",
"IX c #2BE7DE",
"UX c #1BEED7",
"YX c None",
"TX c #29E8DE",
"RX c None",
"EX c #45D8E9",
"WX c #19F1D6",
"QX c #18EFD7",
"!X c None",
"~X c None",
"^X c None",
"/X c #3CDEE5",
"(X c #49D7EB",
")X c None",
"_X c None",
"`X c None",
"'X c #3ADFE5",
"]X c #2DE6DF",
"[X c #44D8E7",
"{X c None",
"}X c #1EEED9",
"|X c #2BE7DF",
" o c None",
".o c #27E8DC",
"Xo c None",
"oo c None",
"Oo c None",
"+o c #23ECDB",
"@o c None",
"#o c #0AF9D1",
"$o c #3EDBE5",
"%o c None",
"&o c #2FE3DE",
"*o c #3CDCE4",
"=o c #13F5D4",
"-o c #4DD5EC",
";o c #44D6E7",
":o c None",
">o c None",
",o c #4BD6EC",
"<o c #0AF9D1",
"1o c #2FE5E0",
"2o c #22ECDA",
"3o c #3CDEE6",
"4o c #20EDDA",
"5o c None",
"6o c #13F2D3",
"7o c None",
"8o c #52D1ED",
"9o c None",
"0o c #4DD3EB",
"qo c None",
"wo c None",
"eo c #2BE5DF",
"ro c #3EDBE5",
"to c #11F3D3",
"yo c None",
"uo c None",
"io c #4BD2EB",
"po c #31E2E0",
"ao c #37DDE2",
"so c #1BEED7",
"do c #1AEFD6",
"fo c #28E7DE",
"go c #40DCE7",
"ho c None",
"jo c #3EDDE7",
"ko c #31E4E1",
"lo c #24EBDB",
"zo c None",
"xo c #07FBCD",
"co c #04FDCC",
"vo c #4FD2EC",
"bo c #22ECDB",
"no c #15F3D5",
"mo c #3FDBE5",
"Mo c None",
"No c #4CD4EC",
"Bo c None",
"Vo c #50D2EF",
"Co c #20EBDA",
"Zo c #14F4D6",
"Ao c #24E9DA",
"So c #47D7EB",
"Do c None",
"Fo c None",
"Go c #40DAE6",
"Ho c #22EADA",
"Jo c #31E3DE",
"Ko c #33E1E0",
"Lo c None",
"Po c None",
"Io c #27E6DC",
"Uo c #31E2E0",
"Yo c #17F0D4",
"To c None",
"Ro c None",
"Eo c #35E2E2",
"Wo c #2EE6DE",
"Qo c #12F5D2",
"!o c #33E3E2",
"~o c #26EADC",
"^o c #10F6D2",
"/o c #24EBDC",
"(o c None",
")o c #15F1D5",
"_o c #17F1D5",
"`o c None",
"'o c None",
"]o c #35E0E1",
"[o c #1FEED9",
"{o c None",
"}o c #28E7DB",
"|o c #26E8DB",
" O c #09FACE",
".O c #03FBCC",
"XO c None",
"oO c #41DAE7",
"OO c #26E8DB",
"+O c #01FCCC",
"@O c None",
"#O c None",
"$O c #37E1E3",
"%O c None",
"&O c None",
"*O c #44DAE9",
"=O c None",
"-O c #35E2E3",
";O c #28E9DD",
":O c #26EADD",
">O c #19F1D7",
",O c #03FBCD",
"<O c #19EFD6",
"1O c None",
"2O c #01FDCA",
"3O c None",
"4O c #17F0D6",
"5O c None",
"6O c #28E7DC",
"7O c #1DEDD6",
"8O c #37DFE2",
"9O c None",
"0O c #4AD5EB",
"qO c None",
"wO c #0EF5D0",
"eO c None",
"rO c None",
"tO c None",
"yO c #39E0E4",
"uO c None",
"iO c #2AE8DE",
"pO c None",
"aO c #1DEFD8",
"sO c #30E1E0",
"dO c None",
"fO c #1BF0D8",
"gO c #0EF7D2",
"hO c None",
"jO c #0CF8D2",
"kO c None",
"lO c #16F3D6",
"zO c #09FAD0",
"xO c #01FFCD",
"cO c None",
"vO c #1FECD7",
"bO c #14F4D4",
"nO c None",
"mO c None",
"MO c #17F3D5",
"NO c #39DEE3",
"BO c None",
"VO c #19EFD7",
"CO c #2CE5DD",
"ZO c None",
"AO c #05FACD",
"SO c None",
"DO c #10F4D1",
"FO c None",
"GO c #3BDFE5",
"HO c #2EE6DF",
"JO c #2CE7DF",
"KO c #1FEED9",
"LO c #0CF6D2",
"PO c None",
"IO c None",
"UO c #4CD4EA",
"YO c #1FECD9",
"TO c #1DEFD9",
"RO c #10F6D3",
"EO c #10F5D1",
"WO c #37E0E2",
"QO c None",
"!O c #0DF6D0",
"~O c None",
"^O c #4ED3EE",
"/O c None",
"(O c #28E7DE",
")O c None",
"_O c #2EE4DE",
"`O c #0FF7D3",
"'O c #1BEED8",
"]O c #03FBCF",
"[O c None",
"{O c #25E9DB",
"}O c #2EE4DE",
"|O c #12F3D2",
" + c None",
".+ c None",
"X+ c None",
"o+ c #03FBCC",
"O+ c None",
"++ c None",
"@+ c #53CFEF",
"#+ c #30E5E0",
"$+ c None",
"%+ c None",
"&+ c #27E8DD",
"*+ c #21EDDA",
"=+ c #2EE6E0",
"-+ c None",
";+ c None",
":+ c #27E6DD",
">+ c #1FEEDA",
",+ c #12F5D4",
"<+ c #18F0D5",
"1+ c #03FBCD",
"2+ c #1FEDD9",
"3+ c #4CD4EB",
"4+ c #33E2E2",
"5+ c None",
"6+ c None",
"7+ c #32E2E0",
"8+ c #49D6EB",
"9+ c None",
"0+ c #14F2D3",
"q+ c #27E8DD",
"w+ c #11F2D4",
"e+ c #01FDCC",
"r+ c None",
"t+ c #14F2D3",
"y+ c #21EBD9",
"u+ c #05FACD",
"i+ c #0AF8D1",
"p+ c #05FACD",
"a+ c #01FDCD",
"s+ c None",
"d+ c None",
"f+ c #32E4E1",
"g+ c None",
"h+ c #23ECDB",
"j+ c #30E5E1",
"k+ c #01FDCD",
"l+ c #3ADEE4",
"z+ c None",
"x+ c None",
"c+ c #16F1D6",
"v+ c #25E9DB",
"b+ c #14F4D5",
"n+ c #07FBCF",
"m+ c #05FCCF",
"M+ c #16F1D6",
"N+ c None",
"B+ c None",
"V+ c None",
"C+ c #13F3D3",
"Z+ c None",
"A+ c None",
"S+ c #25E9DA",
"D+ c None",
"F+ c #23EADA",
"G+ c #32E2E0",
"H+ c #50D2ED",
"J+ c None",
"K+ c None",
"L+ c None",
"P+ c #47D5EA",
"I+ c #17F1D5",
"U+ c #16F1D4",
"Y+ c #1EEDD9",
"T+ c None",
"R+ c #1AEFD8",
"E+ c #24EADA",
"W+ c #25EBDC",
"Q+ c #39DCE5",
"!+ c None",
"~+ c None",
"^+ c #0EF6D3",
"/+ c #18F2D6",
"(+ c #01FDCC",
")+ c None",
"_+ c #16F3D6",
"`+ c #09FAD0",
"'+ c #11F4D2",
"]+ c #0DF6D0",
"[+ c #3FD9E5",
"{+ c #0FF5D2",
"}+ c #07FBD0",
"|+ c #42DAE8",
" @ c None",
".@ c None",
"X@ c None",
"o@ c #21EBDB",
"O@ c #0DF8D3",
"+@ c #01FDCD",
"@@ c #25E9DC",
"#@ c None",
"$@ c #34E1E1",
"%@ c None",
"&@ c #02FCCC",
"*@ c #0BF7CF",
"=@ c #01FDCC",
"-@ c #18F0D5",
";@ c None",
":@ c None",
">@ c None",
",@ c None",
"<@ c #2CE6DE",
"1@ c None",
"2@ c #29E9DD",
"3@ c None",
"4@ c #47D7E9",
"5@ c #27EADD",
"6@ c None",
"7@ c #1CF0D8",
"8@ c #1AF1D7",
"9@ c None",
"0@ c #52D1EE",
"q@ c #47D7E8",
"w@ c #0BF9D1",
"e@ c #02FCCD",
"r@ c #01FDCB",
"t@ c #54CEEE",
"y@ c #4ED1ED",
"u@ c None",
"i@ c #46D8EA",
"p@ c #50D0EC",
"a@ c None",
"s@ c #20EAD8",
"d@ c None",
"f@ c None",
"g@ c #38DFE3",
"h@ c None",
"j@ c None",
"k@ c None",
"l@ c #52D1EE",
"z@ c #1CEED6",
"x@ c #29E7DC",
"c@ c #04FBCD",
"v@ c None",
"b@ c #0DF6D0",
"n@ c #01FFCC",
"m@ c #0CF7CF",
"M@ c None",
"N@ c None",
"B@ c None",
"V@ c #2BE8DE",
"C@ c None",
"Z@ c #3DDDE6",
"A@ c #49D6E9",
"S@ c None",
"D@ c #0FF7D2",
"F@ c #1CF0D8",
"G@ c None",
"H@ c None",
"J@ c None",
"K@ c None",
"L@ c None",
"P@ c #0DF8D2",
"I@ c #39DFE5",
"U@ c None",
"Y@ c None",
"T@ c None",
"R@ c None",
"E@ c #27E9DC",
"W@ c #08FBD0",
"Q@ c #0DF6D2",
"!@ c #18F0D7",
"~@ c None",
"^@ c #10F3D3",
"/@ c None",
"(@ c #02FCCB",
")@ c #0FF5D1",
"_@ c #28E8DB",
"`@ c #30E4E1",
"'@ c #02FCCB",
"]@ c #1CEED7",
"[@ c None",
"{@ c None",
"}@ c None",
"|@ c None",
" # c None",
".# c None",
"X# c None",
"o# c None",
"O# c #2EE3E1",
"+# c #11F6D3",
"@# c #1EEFD9",
"## c None",
"$# c #04FBCF",
"%# c #01FDCD",
"&# c None",
"*# c #0FF7D3",
"=# c #02FECD",
"-# c #01FDCC",
";# c None",
":# c #4DD2ED",
"># c None",
",# c #0FF5D2",
"<# c #45D6E8",
"1# c #13F1D4",
"2# c None",
"3# c None",
"4# c #04FBCF",
"5# c None",
"6# c #11F4D2",
"7# c #19F0D8",
"8# c #04FBCC",
"9# c None",
"0# c #2FE2E0",
"q# c #04FBCC",
"w# c #2CE6DD",
"e# c None",
"r# c #48D7EA",
"t# c #22EDDA",
"y# c None",
"u# c #49D7EB",
"i# c None",
"p# c #20EEDA",
"a# c #13F5D4",
"s# c None",
"d# c #04FDCE",
"f# c None",
"g# c #11F6D4",
"h# c #01FDCC",
"j# c #47D5E9",
"k# c None",
"l# c #26E9DB",
"z# c None",
"x# c None",
"c# c #01FDCD",
"v# c #01FDCC",
"b# c #4BD5EB",
"n# c #20ECD9",
"m# c None",
"M# c #01FDCC",
"N# c None",
"B# c #49D6EB",
"V# c #2FE2E0",
"C# c #06FACD",
"Z# c None",
"A# c #12F4D3",
"S# c None",
"D# c None",
"F# c #0AF6CF",
"G# c #51D0ED",
"H# c #24ECDB",
"J# c None",
"K# c None",
"L# c #15F4D5",
"P# c #22EDDB",
"I# c None",
"U# c #4BD3EC",
"Y# c None",
"T# c None",
"R# c #13F5D5",
"E# c #06FCCF",
"W# c #01FDCC",
"Q# c #01FDCB",
"!# c None",
"~# c None",
"^# c #3DDDE4",
"/# c #3EDAE4",
"(# c None",
")# c None",
"_# c None",
"`# c #01FDCD",
"'# c None",
"]# c None",
"[# c #21EADA",
"{# c #13F3D4",
"}# c #24EADA",
"|# c None",
" $ c #08F9CE",
".$ c None",
"X$ c #08F9CF",
"o$ c #01FDCC",
"O$ c #4BD5EC",
"+$ c #08F9CE",
"@$ c None",
"#$ c #1AF0D6",
"$$ c None",
"%$ c #41D9E5",
"&$ c None",
"*$ c None",
"=$ c #0AFAD0",
"-$ c #17F3D6",
";$ c #01FDCC",
":$ c #17F1D7",
">$ c #0CF7D3",
",$ c None",
"<$ c #08FBD0",
"1$ c #01FDCB",
"2$ c #0AF8D0",
"3$ c #03FCCC",
"4$ c None",
"5$ c #35DFE3",
"6$ c None",
"7$ c #0EF6D2",
"8$ c #01FDCB",
"9$ c #3CDBE5",
"0$ c None",
"q$ c None",
"w$ c None",
"e$ c None",
"r$ c None",
"t$ c None",
"y$ c None",
"u$ c None",
"i$ c #4FD3ED",
"p$ c #26E9DB",
"a$ c #0CF7CF",
"s$ c #0AF8CF",
"d$ c #01FDCC",
"f$ c #4DD4ED",
"g$ c #17F1D5",
"h$ c #0AF8CF",
"j$ c None",
"k$ c #08F9CF",
"l$ c None",
"z$ c None",
"x$ c None",
"c$ c None",
"v$ c None",
"b$ c #0CF9D1",
"n$ c #19F2D7",
"m$ c #53CFEE",
"M$ c None",
"N$ c #18F1D6",
"B$ c #0AFAD1",
"V$ c #01FDCD",
"C$ c #24E9DA",
"Z$ c None",
"A$ c #01FDCB",
/* pixels */
"                                                                                                ",
"                                            R@$$OoR@                                            ",
"                                          :.{om$t@@+;#                                          ",
"                                      @Ov rXvojXb 0@aX:X..                                      ",
"                                    POXo0O0oW.3 >X- l@4 tX*X                                    ",
"                                g.L+i@t.9.,ob.f$W.i$>X- ,X8oM@g.                                ",
"                              :@y.JXp X.KXu.B#V.O$-oW.i$>Xp@G#IOf@                              ",
"                          M$; Z@$o1X5 lXZ X.q@P+8+J O$b.f$W.3 H+VokOM$                          ",
"                        BXe$l+k.C.jo!.1X5 n.EX'o]#u#FX9.,ob.f$W..X^OJ#s+                        ",
"                    M$9+j [.PXo.GO/XC.9$mo!Xh@    qoyXr#j#9.,ob.f$W.y@O.f M$                    ",
"                  S#4$sO. 2X-O$OPXyOSXm.z+M$        @ .@So4@u.B#V.O$-o3+:#9#/O                  ",
"                E &.0.1o(.ko!o2X]o5$%O~.                BXA+;o<#u.(X9.O$b.ioY.K@                ",
"            ..5O:+(OIXJOHO1o#+po4+9oM$                    M$%+M.sXX.` (X9.,oUONo:oX#            ",
"          (#d+{.~onX;OiOIXJOX RXqO                            X@D#[XkXX.KXu.9.b#U#p.'           ",
"          l$[#o@H#W+~o5@;OTXLXr+&O                            M$%o%$5 *OkXX.KXu.A@dXY#          ",
"        K.[@#.)Oa 2oh+/o~o5@}o_@DoFo                        mO)+^#/#go1X5 lXZ # FOK#!#)         ",
"        x+>@XX!#A l.=Xboh+/oW+:Ok Iog M$                M$k#WOg@GO3oC.jo!.[+oOmX$.T#2.o#        ",
"        '.4OI+v$X+j@a.YO4ot#h+loW+|o&+Y@*$            dO}@n s $OPXo.GO/XF.W oX@OSO|+*.a@        ",
"        &#U+g$c+J+L@dO_XY+vO4o*+boH#W+v+h `X        |@O#D f+!o2X-O$O~ ao~#{XL.i#N.Go@X#X        ",
"        oot+L#_+)oMOG )X)#_.$XKOp#*+boh+AoE+6@3O!##Oq.eo=+1o(.ko!o%X4.9X=O5#I@Q+3oC.roB+        ",
"        (o|Oa#b+L#U+lOu@ #,@-Xso7O}Xp#*+P#h+uXC$qXl#zXiO|XJO=+&o0#T.mOMo~X+.8OPX'XGO*o +        ",
"        w m +#=.a#b+L#D.AXDX$ q do7@TO@#>+4ot#HoF+W+~onX2@iO9 <@S@$ V+Jo7+!oEoxX$OPXNOq$        ",
"        6$: D@*#DO6#,+R#0+1#pOBO}.T+I.z@aO@#KO4o*+boH#W+p${O&$(#*$h.w#_O1okoG+Ko2X-OHX/@        ",
"        s#a$jOP@O@Q.^o+#,+a#bOe <.)XwX#$<OfOaO@#KOp#*+Co+o,$o 6XE@7XiOJO]XWo`@V#f+!o$@0$        ",
"        >.h$w@w@F#z$`.`Ow.+#,+{#C+j$Z.K+1O<+MXfOF@aO[oj.QO!+wo8XS+:O;O6Ofo~+'#O 1oj+Uo%@        ",
"        5++$`+=$H x.^ + ^+Q@K +#,+Qo=or$0XI N$!@VO7#LoPo{@2+M 2oh+lo@@.ocXM$x$&XJO]X}Ox#        ",
"        ##C#n+<$5Xx.    6+zo!ON *#ROtoU @$0X3.1@_o.#0X3XUX'O@#KOn#s@B@v@    E q+TXV@CO#@        ",
"        3@] m+E#xox.      M$g+% LOgO*#ROOXVXt$o o .+c.M+>O8@fONX> >#M$      / _ 5@;Ox@w$        ",
"        CXo+d#-.,Ox.           #5o|.b@gO*#,#F 6.m#w+6o_+-$-@WX_#yo          / d /oW+OOl         ",
"        ).'@,.,.,Oy#            Z$T@0 6 P@r fXToO+'+a#b+L#ZoQ Z$            / +XP#h+}#@o        ",
"        9@S Y =#e@>o                f#s$w@b$^.Tos.{+ROg#|OYX                / z.KO4oy+|#        ",
"        9@S Y Y ;$>o                ~O $`+B$<o-+T 7$gO*#[ ;@                rOR+aO@#{ (         ",
"        9@S Y Y 1$++&O              L 7.}+<$ O-+hO#ot P@wOR.              4XD+:$8@fO]@&         ",
"        G@y Y Y S V$C@uO            Bou+E#d.* -+hOzOB$w@, Z#            ZO^XvXYo/+n$QXuo        ",
"        e.~@z Y Y Y < (+iXM$        d@8#d#f.c@-+G.W@J.`+7 ho        M$.$^@x R#b+noE./.H@        ",
"          0XtOn@r.Y Y B W#nOgX      ;+(@,.d#.OXOG.4#d.<$k$GX      y$z#>$)@ROg#v.A#u [@          ",
"              %.k+R Y Y Y A$e+ o    H.B =#=#&@XO1.]Om+E#B.eO    Ro].2$jOP@gO]+EOu$              ",
"                Z.N+M#i.Y Y } h#[O[@H.B Y Y +OXO1.3$d#-.A.| [@I#S.;X=$B$*@m@z#y$                ",
"                  M$ZX+@ .Y Y Y 8 xO2#B Y Y d$XOhXP.P ,.q#N#c$AOE#n+<$X$i+U@M$                  ",
"                      5.k@o$@.Y Y 8.1 S Y Y d$XOhXQ#Y =#=#V ! d#-.p+$#eX3#                      ",
"                        M$9O=@;.Y Y Y Y Y Y d$XO1.Q#Y Y Y =#=#,.1+coN@4X                        ",
"                            C <X= S Y Y Y Y d$XOhXQ#Y Y Y Y S d$). X                            ",
"                              Z$`o%#y Y Y Y d$XOcOQ#Y Y Y i r@$+)X                              ",
"                                  e.J@1$Y Y d$XOhXQ#Y Y 8$pXbX                                  ",
"                                    0X @-#8.d$XOhXQ#r.c#2 0X                                    ",
"                                        Z+2Ov#XO1.`#a+>o                                        ",
"                                          [@c e#U.7oZ.                                          ",
"                                                                                                "
};
