/* XPM */
static char *graphic[] = {
/* width height num_colors chars_per_pixel */
"32 32 502 2", 
/* colors */
"   c None",
".  c #19F0D7",
"X  c None",
"o  c None",
"O  c None",
"+  c None",
"@  c None",
"#  c #06FBCE",
"$  c None",
"%  c None",
"&  c None",
"*  c #01FDCB",
"=  c #45D7E8",
"-  c #30E4DF",
";  c #0EF6D1",
":  c #0EF8D2",
">  c #09F9D1",
",  c #35DFE1",
"<  c None",
"1  c #3BDEE6",
"2  c None",
"3  c #51D0ED",
"4  c #4FD1ED",
"5  c #0AF8D1",
"6  c None",
"7  c #01FDCB",
"8  c #44D9E9",
"9  c None",
"0  c #01FDCB",
"q  c #22ECD9",
"w  c None",
"e  c #1DEED8",
"r  c None",
"t  c #01FDCD",
"y  c #01FFCD",
"u  c None",
"i  c #01FDCD",
"p  c #01FDCC",
"a  c #43D6E9",
"s  c #39DDE2",
"d  c #12F4D3",
"f  c None",
"g  c None",
"h  c #48D7EA",
"j  c None",
"k  c #29E8DC",
"l  c None",
"z  c #01FDCD",
"x  c #46D8EA",
"c  c None",
"v  c #42D8E9",
"b  c #01FDCD",
"n  c #01FDCC",
"m  c #0DF7D1",
"M  c #01FDCD",
"N  c #39DEE3",
"B  c #03FECE",
"V  c None",
"C  c #01FDCD",
"Z  c None",
"A  c #3ADDE3",
"S  c #01FDCD",
"D  c #4AD6EB",
"F  c #0FF6D1",
"G  c #01FDCD",
"H  c #48D7EB",
"J  c #21ECDA",
"K  c #3BDEE5",
"L  c #1AEED8",
"P  c None",
"I  c #21ECDB",
"U  c #1CEFD9",
"Y  c None",
"T  c None",
"R  c None",
"E  c #4AD4EA",
"W  c None",
"Q  c None",
"!  c #1BEDD8",
"~  c None",
"^  c None",
"/  c #05FBCE",
"(  c #4ED2EC",
")  c None",
"_  c #08F8D0",
"`  c #03FCCE",
"'  c #48D8EB",
"]  c #4CD5EC",
"[  c #09F9CF",
"{  c #4AD6EC",
"}  c None",
"|  c None",
" . c #4CD3ED",
".. c None",
"X. c None",
"o. c None",
"O. c #4ED4ED",
"+. c #3FDCE7",
"@. c #4FD4EC",
"#. c #3BDCE6",
"$. c None",
"%. c None",
"&. c None",
"*. c None",
"=. c #13F4D4",
"-. c #1FEED8",
";. c #45D7E9",
":. c None",
">. c None",
",. c #09F9D0",
"<. c None",
"1. c None",
"2. c #34E2E2",
"3. c None",
"4. c #2DE6E0",
"5. c None",
"6. c #12F5D4",
"7. c #17F2D7",
"8. c #31E4E0",
"9. c #02FDCE",
"0. c #24EBDA",
"q. c #36E1E3",
"w. c None",
"e. c #43D8E7",
"r. c None",
"t. c #21EDDA",
"y. c #27E7DE",
"u. c None",
"i. c None",
"p. c None",
"a. c #03FDCD",
"s. c #25EBDD",
"d. c #0FF6D3",
"f. c #31E4DF",
"g. c None",
"h. c #27E9DD",
"j. c #2DE4DE",
"k. c None",
"l. c None",
"z. c None",
"x. c #1AEED6",
"c. c #19EFD7",
"v. c #49D5EC",
"b. c #47D8EA",
"n. c None",
"m. c None",
"M. c #38E0E4",
"N. c #40DAE6",
"B. c #2BE7DE",
"V. c #0AF9D0",
"C. c #0EF7D2",
"Z. c #29E8DE",
"A. c None",
"S. c #1CEFD8",
"D. c #29E7DD",
"F. c #27E7DD",
"G. c #0AF9D0",
"H. c #13F4D4",
"J. c None",
"K. c #10F6D2",
"L. c None",
"P. c None",
"I. c #24E9DB",
"U. c None",
"Y. c #42D9E7",
"T. c #2DE6DF",
"R. c #3ADFE5",
"E. c #2BE7DF",
"W. c #49D5EA",
"Q. c #1EEED9",
"!. c #33E1E1",
"~. c None",
"^. c #42D9E8",
"/. c None",
"(. c #31E2DF",
"). c None",
"_. c #10F6D3",
"`. c #20EBD8",
"'. c #3CDCE4",
"]. c #1EECD8",
"[. c #16F3D6",
"{. c None",
"}. c None",
"|. c #49D5EB",
" X c #1DEFD7",
".X c #22ECDA",
"XX c #2FE5E0",
"oX c #20EDDA",
"OX c #4CD4EC",
"+X c #11F5D4",
"@X c #22EADB",
"#X c None",
"$X c #2DE4DF",
"%X c #51D1EF",
"&X c None",
"*X c #4DD5ED",
"=X c #40DCE7",
"-X c #31E4E1",
";X c #26EADD",
":X c #21EBD9",
">X c None",
",X c #15F1D4",
"<X c #11F3D4",
"1X c #09F8D1",
"2X c #4ED3EC",
"3X c #42D9E6",
"4X c None",
"5X c #2EE4DF",
"6X c None",
"7X c #35E0E2",
"8X c #20EBDA",
"9X c #1BEED6",
"0X c None",
"qX c #1CEED9",
"wX c #15F4D5",
"eX c None",
"rX c #47D7E9",
"tX c #42DBE8",
"yX c #33E3E2",
"uX c #26EADC",
"iX c #07FBCE",
"pX c #10F6D2",
"aX c #21EDDA",
"sX c #25E9DC",
"dX c None",
"fX c #26E9DB",
"gX c #19F2D6",
"hX c None",
"jX c #01FCCB",
"kX c #22EBDA",
"lX c #35E0E1",
"zX c #22EADB",
"xX c #2FE4DF",
"cX c None",
"vX c None",
"bX c #10F6D3",
"nX c None",
"mX c #10F4D3",
"MX c #35E2E3",
"NX c #09FACF",
"BX c #03FBCD",
"VX c None",
"CX c #19F1D7",
"ZX c None",
"AX c None",
"SX c #2AE8DE",
"DX c #04FDCE",
"FX c #51D1EF",
"GX c None",
"HX c None",
"JX c #39E0E4",
"KX c None",
"LX c #46D9EA",
"PX c None",
"IX c #3CDDE5",
"UX c #37E1E4",
"YX c None",
"TX c #05FACD",
"RX c None",
"EX c None",
"WX c None",
"QX c #16F3D6",
"!X c None",
"~X c #48D6E9",
"^X c #2CE5DD",
"/X c #09FAD0",
"(X c #03FBCE",
")X c #16F3D6",
"_X c None",
"`X c None",
"'X c None",
"]X c None",
"[X c #3BDFE5",
"{X c None",
"}X c #1FEED9",
"|X c #2BE6DE",
" o c #10F6D3",
".o c #01FDCB",
"Xo c #03FBCC",
"oo c #0CF7D1",
"Oo c None",
"+o c #29E7DC",
"@o c #0CF6D2",
"#o c #01FCCC",
"$o c None",
"%o c None",
"&o c #3BDDE6",
"*o c None",
"=o c #21EDDA",
"-o c #12F5D4",
";o c #1FEEDA",
":o c None",
">o c #3EDCE7",
",o c #13F3D6",
"<o c #2CE5DF",
"1o c None",
"2o c None",
"3o c None",
"4o c #2FE4E0",
"5o c None",
"6o c #21EBD9",
"7o c #10F4D3",
"8o c None",
"9o c None",
"0o c None",
"qo c #1AF1D8",
"wo c #23ECDB",
"eo c #24EADA",
"ro c #01FDCC",
"to c #14F4D5",
"yo c #05FCCF",
"uo c #02FCCB",
"io c None",
"po c #4ED3EC",
"ao c None",
"so c None",
"do c #53CFEE",
"fo c #16F1D4",
"go c None",
"ho c #01FDCC",
"jo c #2DE3DF",
"ko c #18F0D6",
"lo c #01FDCE",
"zo c None",
"xo c #3FDBE7",
"co c #34E3E2",
"vo c None",
"bo c #25EBDC",
"no c None",
"mo c None",
"Mo c #3EDCE4",
"No c #13F3D4",
"Bo c None",
"Vo c None",
"Co c #27E8DB",
"Zo c None",
"Ao c None",
"So c #18F0D5",
"Do c #07F9CF",
"Fo c None",
"Go c #53CDED",
"Ho c #01FDCC",
"Jo c #37E0E3",
"Ko c None",
"Lo c None",
"Po c #27EADD",
"Io c #1CEED9",
"Uo c #05FBCE",
"Yo c #04FBCD",
"To c None",
"Ro c #33E2E2",
"Eo c #27E8DE",
"Wo c #0BF9D1",
"Qo c #01FDCB",
"!o c None",
"~o c None",
"^o c None",
"/o c #23EADC",
"(o c #0DF6D0",
")o c None",
"_o c None",
"`o c #50D2EE",
"'o c None",
"]o c None",
"[o c None",
"{o c None",
"}o c #15F4D6",
"|o c #1CF0D8",
" O c #01FDCC",
".O c #01FDCD",
"XO c None",
"oO c #45D8E9",
"OO c #0DF8D2",
"+O c #0DF7D1",
"@O c #01FDCB",
"#O c #42DAE8",
"$O c #26E9DC",
"%O c #01FDCA",
"&O c None",
"*O c None",
"=O c None",
"-O c #0DF6D2",
";O c None",
":O c #1CEED7",
">O c None",
",O c #0BF7D1",
"<O c #37E0E1",
"1O c #0BF7D1",
"2O c None",
"3O c #01FDCA",
"4O c None",
"5O c #17EFD5",
"6O c None",
"7O c #49D4E9",
"8O c #1EEFD9",
"9O c #11F6D3",
"0O c #18F1D7",
"qO c None",
"wO c None",
"eO c None",
"rO c #0FF7D3",
"tO c #02FECD",
"yO c #02FCCC",
"uO c #4AD6EB",
"iO c #11F4D2",
"pO c None",
"aO c #11F5D2",
"sO c None",
"dO c None",
"fO c #04FBCF",
"gO c None",
"hO c #37E0E1",
"jO c #01FDCD",
"kO c None",
"lO c #02FCCD",
"zO c #04FBCC",
"xO c #44D7E9",
"cO c #2AE7DD",
"vO c None",
"bO c None",
"nO c #52D2EF",
"mO c #13F5D4",
"MO c #20EEDA",
"NO c #24EADA",
"BO c #4DD4EB",
"VO c #11F6D4",
"CO c #04FDCE",
"ZO c None",
"AO c #1DEED8",
"SO c None",
"DO c None",
"FO c None",
"GO c #4FD1EE",
"HO c #47D5E9",
"JO c None",
"KO c None",
"LO c None",
"PO c None",
"IO c #0FF5D3",
"UO c #15F2D3",
"YO c #13F3D3",
"TO c #0FF5D3",
"RO c #0BF8D1",
"EO c #02FCCD",
"WO c #49D6EB",
"QO c #01FDCB",
"!O c None",
"~O c #24ECDB",
"^O c #08FBCF",
"/O c None",
"(O c #06FCCF",
")O c None",
"_O c None",
"`O c #3CDBE4",
"'O c #51D3EC",
"]O c None",
"[O c #2FE4E0",
"{O c #24EADA",
"}O c None",
"|O c None",
" + c None",
".+ c #04FBCE",
"X+ c #4BD3EB",
"o+ c #4BD5EC",
"O+ c None",
"++ c #01FDCB",
"@+ c #47D5EB",
"#+ c None",
"$+ c #13F3D5",
"%+ c None",
"&+ c None",
"*+ c #39DFE4",
"=+ c None",
"-+ c None",
";+ c None",
":+ c #08FBD0",
">+ c None",
",+ c None",
"<+ c #4FD3ED",
"1+ c #0FF6D3",
"2+ c #06FACF",
"3+ c #01FDCC",
"4+ c #4DD4ED",
"5+ c #40DBE7",
"6+ c #28E8DD",
"7+ c #13F4D4",
"8+ c None",
"9+ c None",
"0+ c None",
"q+ c None",
"w+ c None",
"e+ c #1FEDD9",
"r+ c #0AFAD1",
"t+ c #2CE6DF",
"y+ c #0CF7D1",
"u+ c #0AF6D1",
"i+ c #01FDCC",
"p+ c None",
"a+ c #0AFBD0",
"s+ c #1DEED9",
"d+ c None",
"f+ c None",
/* pixels */
"                              $ 9o                              ",
"                          w+POdoGoR w+                          ",
"                        5o_o@.4 3 %X>XqO                        ",
"                    )OcX' 7O] 4+<+`oFXnO-+w+                    ",
"                  !OpO#Oe.x h |.X+*XO.poGO +Oo                  ",
"                w N &o+.5+3XY.%+YXv.E ] O.( 'O0+                ",
"            c =ORo, JX[X#.>oKXT 1.}.rX@+{ ] BO2Xj 6X            ",
"          < n.j.-XyXlXhOr.m.        `X#+;.~XD o+ .;+'o          ",
"      p+4XsXSXE.T.$X4omovX            W kO= oOH WOW.OXsoW       ",
"      i.q {OuXh.Z.+o1ow+                w+KO^.8 LXb.HOuOao      ",
"    ~o6 2ot.J ~OboCo$O]O!O            _O% A `O=XtXv a q+{.*o    ",
"    >+7.}O/OZOe+6owobo;XfXu         |OLo7XM.R.'.Mo&O&.&+xOwO    ",
"    >+}o,X[.0X]X-.e =owo/oeoHXc vXRXjo[OyX2.q.Jo*.:.IXxoN.&.    ",
"    >+mXtoUOQXeOAX@  X}X=o.X@XQ dXEoB.T.XX- 3.A.J.<Os K 1 &.    ",
"    GXF  o-omO$+,o& p.L ! Q.oX8XzXboPoF.|XEX9 xX(.coMXUX*+)     ",
"    GXV.OO-OK.iOYO=.&XP 4O9XS.8OMO=oI s.Y *OcO^X<o5Xf.yX!.)     ",
"    GXNXr+G.~.{Xd.9Od 7+P.l.5Ox.:OAO).ZokXNOuX6+D.3o4.XX8.SO    ",
"    GXiX:+/XAo6Or C.TO7o_.^ z.0OgX5.]oU ].`.:XWXno$.k B.t+SO    ",
"    >.BXyofOAo    eXooy+rOpXaO:o[o0okoCX. qXw.    {oI.Poy.>O    ",
"    >.9.B (X8o      ,+LOu+OO; V 8+<Xto)Xl =+      hXaXwo0.>O    ",
"    >.QOy uo8o        p+a+r+1OX.$oIOVO6.p+        hXIo;oe+9+    ",
"    >.QOy i+Z f       w+Uo:+,.k.O+@o: 1+w+        L.qo|os+AX    ",
"    d+ OG 7 %Ovo}     w+Uoyo2+g f+5 WoROw+    6O#XNofoSoc.go    ",
"      !X.oi y t lo^o  w+roB .+o 2ODo:+_ w+  2 +ObX+XH.wXgO      ",
"        ,+Fo3O7 #o@O%o6Oroy EO..VX/ (O# O io> ,O(om <._X        ",
"          w+o.hob y jXsOHoy G BoDO` CODXbOTX^O[ 1X)ow+          ",
"              dOKoQO0 p z y G BozoS tOlOXozOYoZXPX              ",
"                w+/..OC y y G BozoS y y yOa.FOnX                ",
"                    %.To3+0 G BozoS n ++;OvO                    ",
"                      + 'XQoM Bozo* jOVoU.                      ",
"                          g.XO~ | !oJO                          ",
"                            X } } u.                            "
};
