/* XPM */
static char *graphic[] = {
/* width height num_colors chars_per_pixel */
"40 40 661 2", 
/* colors */
"   c None",
".  c #50D1EF",
"X  c #22EBDC",
"o  c #28E8DD",
"O  c None",
"+  c None",
"@  c #0DF7D2",
"#  c #51D2EE",
"$  c #51D2EF",
"%  c None",
"&  c #01FFCD",
"*  c #42DAE8",
"=  c None",
"-  c None",
";  c #01FDCB",
":  c #33E2E2",
">  c None",
",  c None",
"<  c #10F5D4",
"1  c #0EF6D1",
"2  c #06FBCE",
"3  c None",
"4  c #0EF6D1",
"5  c None",
"6  c #01FDCD",
"7  c #03FCCC",
"8  c #4FD1EE",
"9  c None",
"0  c None",
"q  c None",
"w  c None",
"e  c #21ECDA",
"r  c #0CF5D0",
"t  c #12F4D4",
"y  c #01FDCC",
"u  c #46D8E9",
"i  c #16F2D6",
"p  c None",
"a  c #01FDCC",
"s  c #01FDCB",
"d  c #53CFEE",
"f  c #44D9E9",
"g  c #37E0E3",
"h  c #44D7E8",
"j  c None",
"k  c #0EF6D1",
"l  c #01FDCB",
"z  c #01FDCD",
"x  c None",
"c  c None",
"v  c None",
"b  c None",
"n  c #41D9E6",
"m  c None",
"M  c #43D8E9",
"N  c None",
"B  c None",
"V  c None",
"C  c #01FFCD",
"Z  c #38E0E4",
"A  c #46D6E8",
"S  c #16F2D3",
"D  c #1DEFD8",
"F  c None",
"G  c #01FDCC",
"H  c None",
"J  c None",
"K  c #35E0E2",
"L  c #0EF4D1",
"P  c #48D7EA",
"I  c None",
"U  c #1FEDD8",
"Y  c #23EBDB",
"T  c #10F5D2",
"R  c #39DFE4",
"E  c #03FCCC",
"W  c #51D0EF",
"Q  c #2AE7DE",
"!  c None",
"~  c None",
"^  c #0BF6D2",
"/  c #0EF6D3",
"(  c #1CEFD8",
")  c #01FDCD",
"_  c #46D6E9",
"`  c #41DBE6",
"'  c None",
"]  c None",
"[  c #16F2D4",
"{  c None",
"}  c #4AD6EB",
"|  c #14F3D3",
" . c None",
".. c #01FDCD",
"X. c #3BDEE5",
"o. c #2EE5DF",
"O. c None",
"+. c #2CE6DF",
"@. c #40DAE8",
"#. c None",
"$. c None",
"%. c #4CD3EC",
"&. c #41DBE6",
"*. c #19EFD6",
"=. c None",
"-. c None",
";. c None",
":. c #34E0E0",
">. c None",
",. c #10F6D0",
"<. c #4CD5EC",
"1. c None",
"2. c #3FDCE6",
"3. c #16F2D4",
"4. c #3DDDE6",
"5. c None",
"6. c #23EBDB",
"7. c #23E9DC",
"8. c #30E4E0",
"9. c None",
"0. c #21ECDA",
"q. c None",
"w. c None",
"e. c #1CEDD9",
"r. c #0DF5D3",
"t. c #3FDAE5",
"y. c #31E2E1",
"u. c #0DF7D1",
"i. c None",
"p. c #4AD4EB",
"a. c None",
"s. c #10F6D3",
"d. c #4ED4ED",
"f. c #41DBE7",
"g. c #47D6EA",
"h. c #32E3E1",
"j. c #1DEFD8",
"k. c None",
"l. c #23EBDB",
"z. c #46D7EA",
"x. c None",
"c. c None",
"v. c #3EDBE5",
"b. c None",
"n. c None",
"m. c None",
"M. c #14F4D4",
"N. c #1AF0D7",
"B. c None",
"V. c None",
"C. c None",
"Z. c #25E8DA",
"A. c #38DEE3",
"S. c None",
"D. c #43DAE8",
"F. c #27E9DC",
"G. c #34E2E2",
"H. c None",
"J. c #45D7E8",
"K. c #2BE7DD",
"L. c #25EADC",
"P. c #2FE5E0",
"I. c #17F2D4",
"U. c None",
"Y. c None",
"T. c #36DFE2",
"R. c None",
"E. c None",
"W. c None",
"Q. c None",
"!. c None",
"~. c #50D2EC",
"^. c #46D7EB",
"/. c #45D9E9",
"(. c #38E0E3",
"). c #29E8DD",
"_. c #36E1E3",
"`. c #16F1D5",
"'. c #27E9DD",
"]. c None",
"[. c None",
"{. c #0BF8D1",
"}. c None",
"|. c None",
" X c None",
".X c None",
"XX c #3ADFE4",
"oX c #45D7E9",
"OX c #47D8EA",
"+X c #1EEED9",
"@X c #38E0E4",
"#X c #2BE7DE",
"$X c None",
"%X c #34E0E3",
"&X c #15F3D4",
"*X c #1CEFD8",
"=X c None",
"-X c None",
";X c #0FF6D2",
":X c #1FECD8",
">X c #2DE7DF",
",X c #4AD5EB",
"<X c #18F2D6",
"1X c None",
"2X c #3CDCE4",
"3X c #2BE5DD",
"4X c #12F5D4",
"5X c None",
"6X c None",
"7X c #2BE5DE",
"8X c #1EECD7",
"9X c None",
"0X c None",
"qX c #20EDDA",
"wX c #2DE6DF",
"eX c #20EDD9",
"rX c #4DD3ED",
"tX c #49D5EA",
"yX c None",
"uX c #44DAE8",
"iX c #1EEED9",
"pX c #2CE5DE",
"aX c #21EBDA",
"sX c None",
"dX c #13F2D2",
"fX c #23EADB",
"gX c #1CEDD8",
"hX c #0AF9D1",
"jX c #49D5EA",
"kX c #4BD4EA",
"lX c #31E2DF",
"zX c None",
"xX c None",
"cX c #3CDCE4",
"vX c #16F3D4",
"bX c None",
"nX c None",
"mX c #31E2E0",
"MX c #31E4E0",
"NX c None",
"BX c #2FE5E0",
"VX c None",
"CX c #22ECDA",
"ZX c None",
"AX c #26EADB",
"SX c #20EDDA",
"DX c #13F4D4",
"FX c None",
"GX c #17F0D5",
"HX c #34E1E1",
"JX c #04FCCE",
"KX c None",
"LX c #54D0ED",
"PX c #4FD2EF",
"IX c #4DD3EB",
"UX c #1EECD9",
"YX c #22EAD9",
"TX c #31E2DF",
"RX c None",
"EX c #22EAD9",
"WX c None",
"QX c #33E3E1",
"!X c #24EBDB",
"~X c #1AEFD8",
"^X c None",
"/X c #22ECDB",
"(X c None",
")X c None",
"_X c #08FACF",
"`X c #15F3D6",
"'X c None",
"]X c #06FBCF",
"[X c #4DD3EC",
"{X c #4FD3EC",
"}X c #35E0E0",
"|X c #2CE5DF",
" o c None",
".o c #31E2E0",
"Xo c #33E1E0",
"oo c #0AF7CF",
"Oo c #3DDCE7",
"+o c #24E9DA",
"@o c None",
"#o c None",
"$o c None",
"%o c #35E2E2",
"&o c #26EADC",
"*o c #0FF7D3",
"=o c None",
"-o c None",
";o c #16F3D6",
":o c #25EBDA",
">o c None",
",o c #27E8DE",
"<o c #17F2D6",
"1o c #12F5D2",
"2o c #0AF9D0",
"3o c None",
"4o c None",
"5o c #08FAD0",
"6o c #23EAD9",
"7o c None",
"8o c None",
"9o c #48D6EA",
"0o c #37E1E3",
"qo c #35E2E3",
"wo c #19EFD7",
"eo c #35E0E1",
"ro c None",
"to c #15F1D5",
"yo c #26E8DB",
"uo c #28E7DB",
"io c None",
"po c #08F8D0",
"ao c None",
"so c None",
"do c #29E7DC",
"fo c #1DEDD7",
"go c #0CF6CF",
"ho c None",
"jo c None",
"ko c None",
"lo c #1BF0D8",
"zo c None",
"xo c #2BE6DE",
"co c #38DFE1",
"vo c #3FDBE6",
"bo c #23ECDB",
"no c #28E9DD",
"mo c #1BF0D7",
"Mo c None",
"No c None",
"Bo c #0CF8D1",
"Vo c None",
"Co c None",
"Zo c #0AF9D1",
"Ao c #01FCCB",
"So c #2AE8DE",
"Do c #1FEEDA",
"Fo c #10F6D3",
"Go c #39DEE3",
"Ho c None",
"Jo c #1BEED6",
"Ko c None",
"Lo c #1BEED6",
"Po c #2CE7DE",
"Io c None",
"Uo c None",
"Yo c #48D6EA",
"To c #1DEFD8",
"Ro c #1DEFD9",
"Eo c #1FEED9",
"Wo c #0EF7D2",
"Qo c None",
"!o c #0BF9CF",
"~o c None",
"^o c None",
"/o c #18F0D5",
"(o c None",
")o c None",
"_o c None",
"`o c None",
"'o c None",
"]o c None",
"[o c #1DEDD7",
"{o c #39DEE4",
"}o c None",
"|o c None",
" O c None",
".O c #2AE6DD",
"XO c None",
"oO c None",
"OO c None",
"+O c None",
"@O c #1EEDD9",
"#O c #1FEED9",
"$O c None",
"%O c #4CD4EA",
"&O c #1FECD8",
"*O c #10F6D3",
"=O c None",
"-O c #03FDCD",
";O c #02FCCB",
":O c #3DDCE6",
">O c None",
",O c #01FECD",
"<O c None",
"1O c #18F2D7",
"2O c None",
"3O c #07F9CD",
"4O c None",
"5O c #21EBD8",
"6O c #37E0E4",
"7O c #3BDDE4",
"8O c #2EE4DE",
"9O c #2EE4DF",
"0O c #05FACD",
"qO c #0BF7D1",
"wO c #01FCCD",
"eO c #45D8E8",
"rO c #12F3D2",
"tO c #1AEFD6",
"yO c #01FCCC",
"uO c None",
"iO c None",
"pO c None",
"aO c None",
"sO c None",
"dO c None",
"fO c None",
"gO c #21EDDA",
"hO c #12F5D4",
"jO c #0EF5D3",
"kO c #10F4D3",
"lO c #05FCCE",
"zO c None",
"xO c None",
"cO c #07F9CE",
"vO c #03FDCE",
"bO c #48D4E9",
"nO c None",
"mO c None",
"MO c None",
"NO c None",
"BO c None",
"VO c None",
"CO c #09F8CE",
"ZO c #01FFCC",
"AO c #05FDCF",
"SO c #01FDCC",
"DO c #3DDDE4",
"FO c #4CD2EB",
"GO c None",
"HO c #23EAD9",
"JO c #30E3DF",
"KO c #0FF5D1",
"LO c #21EBD9",
"PO c #14F2D3",
"IO c #07F9CE",
"UO c #05FACD",
"YO c None",
"TO c #48D7EA",
"RO c None",
"EO c #23ECDB",
"WO c #16F3D5",
"QO c #3DDAE5",
"!O c #29E7DC",
"~O c #14F4D5",
"^O c #07FBCF",
"/O c #4DD4EC",
"(O c None",
")O c #1FEDD7",
"_O c #09F8CF",
"`O c #02FCCC",
"'O c #51D2EE",
"]O c None",
"[O c None",
"{O c #34E1E1",
"}O c #07F9CF",
"|O c None",
" + c None",
".+ c #4CD4EC",
"X+ c None",
"o+ c #0DF8D3",
"O+ c #01FDCD",
"++ c None",
"@+ c #44D9E9",
"#+ c #27E8DD",
"$+ c #46D8EA",
"%+ c #09FAD0",
"&+ c #01FDCC",
"*+ c #08F9CF",
"=+ c #0BF7D0",
"-+ c #4ED1EB",
";+ c None",
":+ c None",
">+ c #26E7DB",
",+ c None",
"<+ c None",
"1+ c None",
"2+ c None",
"3+ c None",
"4+ c #07F9CF",
"5+ c #50D2ED",
"6+ c #27E8DB",
"7+ c #4ED3ED",
"8+ c None",
"9+ c #18F0D5",
"0+ c #15F2D4",
"q+ c #13F3D2",
"w+ c None",
"e+ c #3DDDE5",
"r+ c None",
"t+ c #01FDCD",
"y+ c #0DF8D1",
"u+ c None",
"i+ c #1AF1D7",
"p+ c #2DE5DE",
"a+ c #0BF9D1",
"s+ c None",
"d+ c None",
"f+ c None",
"g+ c None",
"h+ c #32E3E2",
"j+ c None",
"k+ c #0FF5D1",
"l+ c #2BE6DC",
"z+ c #0BF7D1",
"x+ c None",
"c+ c #13F3D3",
"v+ c #01FDCC",
"b+ c #43D9E8",
"n+ c #04FBCC",
"m+ c #0FF7D2",
"M+ c None",
"N+ c #04FBCC",
"B+ c #0DF8D2",
"V+ c #01FDCB",
"C+ c #31E1E1",
"Z+ c #28E8DE",
"A+ c None",
"S+ c #52CFED",
"D+ c #43D7E7",
"F+ c None",
"G+ c None",
"H+ c None",
"J+ c #0DF6D2",
"K+ c #47D7EA",
"L+ c #27E8DD",
"P+ c #11F4D2",
"I+ c None",
"U+ c #2BE6DE",
"Y+ c #02FCCC",
"T+ c #45D8E9",
"R+ c None",
"E+ c #0FF5D1",
"W+ c #02FCCB",
"Q+ c None",
"!+ c None",
"~+ c None",
"^+ c None",
"/+ c None",
"(+ c None",
")+ c #11F6D3",
"_+ c #0FF7D3",
"`+ c #02FECD",
"'+ c #06FACD",
"]+ c #4FD1ED",
"[+ c #12F4D4",
"{+ c None",
"}+ c None",
"|+ c #15F2D4",
" @ c None",
".@ c None",
"X@ c #2DE5DE",
"o@ c #02FCCD",
"O@ c None",
"+@ c #49D6EB",
"@@ c #49D6EA",
"#@ c None",
"$@ c #11F4D2",
"%@ c #22EBDB",
"&@ c #04FBCD",
"*@ c #47D7EA",
"=@ c #11F4D2",
"-@ c #25E7DD",
";@ c None",
":@ c None",
">@ c #37E0E2",
",@ c None",
"<@ c #01FDCE",
"1@ c None",
"2@ c #01FDCD",
"3@ c None",
"4@ c #13F5D4",
"5@ c None",
"6@ c None",
"7@ c #06FCCE",
"8@ c #01FDCC",
"9@ c #04FDCE",
"0@ c #01FDCC",
"q@ c #01FDCB",
"w@ c #38DDE3",
"e@ c None",
"r@ c None",
"t@ c None",
"y@ c None",
"u@ c #31E3DF",
"i@ c #22EBD9",
"p@ c None",
"a@ c #04FBCE",
"s@ c #01FDCD",
"d@ c #4BD5EB",
"f@ c #49D6EB",
"g@ c #3CDDE5",
"h@ c #53CFED",
"j@ c None",
"k@ c None",
"l@ c #3ADEE5",
"z@ c #2FE4E0",
"x@ c #29E8DE",
"c@ c #01FDCC",
"v@ c None",
"b@ c None",
"n@ c #06FCCF",
"m@ c None",
"M@ c None",
"N@ c #16F0D5",
"B@ c #01FDCB",
"V@ c None",
"C@ c #2DE5E0",
"Z@ c None",
"A@ c #06FACF",
"S@ c #4DD4EC",
"D@ c None",
"F@ c #4BD5EC",
"G@ c #3EDCE6",
"H@ c #2EE3DF",
"J@ c #28E8DB",
"K@ c None",
"L@ c #22EBDB",
"P@ c None",
"I@ c #2FE4E0",
"U@ c None",
"Y@ c None",
"T@ c None",
"R@ c #0AFAD0",
"E@ c None",
"W@ c None",
"Q@ c #3EDAE5",
"!@ c #01FDCC",
"~@ c None",
"^@ c #11F5D5",
"/@ c None",
"(@ c #2EE3DD",
")@ c None",
"_@ c #17F1D5",
"`@ c None",
"'@ c None",
"]@ c #01FDCD",
"[@ c None",
"{@ c #4FD3ED",
"}@ c #39DFE3",
"|@ c #19F0D5",
" # c #40DBE7",
".# c #4DD4ED",
"X# c #19F0D6",
"o# c None",
"O# c #0AF8CF",
"+# c None",
"@# c None",
"## c None",
"$# c #40DBE8",
"%# c None",
"&# c #01FDCB",
"*# c #01FDCC",
"=# c #4FD1EC",
"-# c None",
";# c None",
":# c None",
"># c #01FDCB",
/* pixels */
"                                      ####                                      ",
"                                    E.Q+~oV.                                    ",
"                                =.++'OW d LXP@=.                                ",
"                              zO:@rX-+5+# S+h@<+^o                              ",
"                          ##b $++@} F@S@7+{@# $ . 'o##                          ",
"                        S.D@n D+u *@@@jXp..+d.{@=#PXiO3@                        ",
"                    ##{+DOQO #f.D.f J.z.TOYod@.+.#{@8 ~.w ##                    ",
"                  j@t@cow@X.4.G@t.vok@[.$oG+g.bOd@<.S@[X]+F+<O                  ",
"                1.h+:.eog @XXX{oe+% ##    ## O^.K+f@} <.IXFO{Xn.                ",
"            ;+1XpXC@MXh.: }X>@nXw+            J GOeO_ f@} F@%O/Om@ o            ",
"          ho4o!O.O+.wXBXz@y.VX-#                :+0 @+oX*@P } kX%.W@}+          ",
"        KoaXX &o'.).Q K.>XMO                        q.joh T+OXP f@tX,XZX        ",
"      ##w.B.e HO!X&oF.L+doWXko                    ko3+Oo&.* b+/.A 9oI zO##      ",
"      f+(+/+pO@O&O/X!XL.6+#+rom                 ;.9 A.cX4.2. #$#M (X1+k.fO      ",
"      Y.GX*. Xj+yXDo5OCX!XL.AX>+#@-#        -#;#HX%Xg R l@cX:ORO9X> @.uX]o      ",
"      #.S _@i sXNO+#e.UXSXCXl.+o:oM@nO    'XOOP..oQXG._.0oZ v@}op v.Q@` >o      ",
"      x.P+~O3.&X`.! 5.D foU SX0.EO6.fX>.$.,o7XwXo.I@u@mXK e@e@6O}@7Og@2Xr@      ",
"      B k+hODX~OtovXW.Ho.X( [oiXeXgOYXbo7.yono).#X3X|Xx+}o[OC+qo_.(.R Go/@      ",
"      r+r _+*O=@4@| |+C.' T@~XN.ToiX#OgOCXl.L.&oo x@|o>O, p+JOh.Xo%o_.T.I+      ",
"      r+ooy+Wor.KO$@hOdX4Xj w.]./oJo*XiX#OSXi@6o=O'Xy@Z+SoPoX@(@H@TXQX{O,+      ",
"      (OCOa+{.c.!+*ojO)+rOc+V 3 1@<XX#mo*XRo)O=XNoO.%@Z.F.J@xo~ R+8O8.lXH+      ",
"      (O3O5o%+=o  m.o#o+E+)+kO[+|.m.)XI.1OKXZ@K@j.Eo0.EXY NXZ@  g+l++.9O8+      ",
"      d+0O]X^O,@    -#dO^ 4 _+T < Io2Ou+x = aOtOJoTogX:X5X+     -.uo).U+(o      ",
"      +O&@lOlO-X        `@%#u.k m+L s.4O`@M.[ <o9+wo5 M+        bX+o&o-@io      ",
"      CoY+-O9@5@          U. +qOy+WoJ+U@b.1oDX~O0+H.U.          zXLOEOL@XO      ",
"      Coa ,O`+$X              @o2oa+z+;@.@Fo)+hO^@              7o8XeXqXF       ",
"      Coa C ,O @              '@_X%+poY@.@=+Wo;Xc               #oLoTo+XF       ",
"      -oy C C 0@BOO           6X]X^O}OY@- _OBoy+$O          O 6@;o|@i+loxX      ",
"       .&+; C l 6 ~+3o        p@9@lOA@xOA+cOR@ZoMo        8oq q+POWO`XN@]       ",
"        a.s+!@l C ) <@{ -#    0X-OvOa@xOVO'+^O5oN     -#@#@ / )+rOt aoRX        ",
"          -#{ v+) C l B@]Oa.  R.,O`+o@xOVON+7@]X^X  Uo~@hXgoB+1 ,.Qo-#          ",
"              :#~+6 l C ; ZOFXQ.C C wOzoso7 9@JXb@E@2 IO%+O#!o9.)o              ",
"                O BO2@G C s ]@V+C C & zooOAo`+-Os@`OUOn@4+*+2+sO                ",
"                     .}.z l C l C C & zooO&#C ,OW+-OE n+AOmO                    ",
"                      ^+|O8@..C C C & zooO&#C C C yO;O)@^+                      ",
"                          YOSO&#C C & zooO&#C C >#O+V@H                         ",
"                            [@X+c@s & zooO&#s q@uO!.                            ",
"                              ##Vot+*#zooO6 &+_o##                              ",
"                                  `oi.O@v uOUo                                  ",
"                                    ########                                    "
};
