/* XPM */
static char *graphic[] = {
/* width height num_colors chars_per_pixel */
"20 20 241 2", 
/* colors */
"   c None",
".  c None",
"X  c #1BEFD8",
"o  c #0BF8D0",
"O  c #37E0E4",
"+  c #23EBD9",
"@  c #01FDCD",
"#  c #05FBCD",
"$  c #01FDCB",
"%  c None",
"&  c None",
"*  c None",
"=  c None",
"-  c #25EADD",
";  c None",
":  c None",
">  c None",
",  c #48D7EB",
"<  c #01FDCC",
"1  c #23EBD9",
"2  c #0EF7D2",
"3  c #01FDCD",
"4  c #44D8E8",
"5  c #28E6DE",
"6  c #50D1ED",
"7  c #32E1E1",
"8  c #21ECDA",
"9  c None",
"0  c #2BE5DD",
"q  c None",
"w  c #18EFD7",
"e  c None",
"r  c #3ADFE3",
"t  c None",
"y  c #0CF6D1",
"u  c #0FF4D2",
"i  c #4ED2EE",
"p  c None",
"a  c #12F5D4",
"s  c None",
"d  c #3FDAE5",
"f  c None",
"g  c None",
"h  c #12F2D5",
"j  c None",
"k  c #16F3D4",
"l  c #19F1D6",
"z  c #10F4D3",
"x  c None",
"c  c None",
"v  c #0FF6D2",
"b  c #0DF7D2",
"n  c #03FBCD",
"m  c #07FBCF",
"M  c #4DD3EB",
"N  c None",
"B  c None",
"V  c #36DFE1",
"C  c None",
"Z  c #3ADDE3",
"A  c None",
"S  c None",
"D  c None",
"F  c None",
"G  c #39E0E4",
"H  c #29E6DC",
"J  c #24EBDA",
"K  c None",
"L  c None",
"P  c None",
"I  c #11F5D4",
"U  c None",
"Y  c #07F9CF",
"T  c #4BD4EA",
"R  c #30E3E1",
"E  c #2DE6DF",
"W  c None",
"Q  c #05FCCE",
"!  c #27EADC",
"~  c #1EECD7",
"^  c None",
"/  c #20EBDA",
"(  c None",
")  c None",
"_  c #0EF7D3",
"`  c None",
"'  c None",
"]  c #21EBDA",
"[  c None",
"{  c #2FE3E0",
"}  c #2FE6DF",
"|  c #20EBDA",
" . c None",
".. c #33E3E2",
"X. c #1EECD9",
"o. c None",
"O. c None",
"+. c #22EAD9",
"@. c None",
"#. c #27EADB",
"$. c None",
"%. c None",
"&. c None",
"*. c None",
"=. c #10F6D2",
"-. c None",
";. c None",
":. c #0BF9D1",
">. c #17F1D5",
",. c None",
"<. c None",
"1. c #42D9E8",
"2. c #20ECDB",
"3. c #3CDDE4",
"4. c #1CF0D8",
"5. c #0EF6CF",
"6. c #1BEED8",
"7. c #35E1E1",
"8. c None",
"9. c #01FFCC",
"0. c None",
"q. c #2DE5DE",
"w. c #01FFCD",
"e. c #14F4D4",
"r. c #01FDCA",
"t. c None",
"y. c #51D2ED",
"u. c #1EEDD9",
"i. c None",
"p. c #1CECD7",
"a. c #12F3D2",
"s. c #08F9D0",
"d. c None",
"f. c None",
"g. c #21EBD8",
"h. c #07F9CE",
"j. c None",
"k. c None",
"l. c None",
"z. c None",
"x. c None",
"c. c #1DEED8",
"v. c None",
"b. c None",
"n. c None",
"m. c None",
"M. c #01FDCC",
"N. c #01FDCD",
"B. c None",
"V. c None",
"C. c #01FDCB",
"Z. c #3CDFE6",
"A. c None",
"S. c #05FACE",
"D. c #13F3D3",
"F. c None",
"G. c None",
"H. c None",
"J. c None",
"K. c #01FDCC",
"L. c #07F9CF",
"P. c #05FBCD",
"I. c #09F8CF",
"U. c #31E1E0",
"Y. c #01FDCD",
"T. c None",
"R. c #02FCCB",
"E. c None",
"W. c #0DF6D0",
"Q. c #46D8EA",
"!. c #17F1D6",
"~. c None",
"^. c None",
"/. c #25E9DC",
"(. c None",
"). c #04FBCC",
"_. c #4CD5ED",
"`. c None",
"'. c #45D8E9",
"]. c #27E9DD",
"[. c #34DFE1",
"{. c #10F5D1",
"}. c #11F6D5",
"|. c None",
" X c None",
".X c #4BD5EA",
"XX c #49D6EA",
"oX c None",
"OX c #01FDCD",
"+X c None",
"@X c None",
"#X c #48D5E9",
"$X c #24E8DA",
"%X c #4DD4EB",
"&X c #42DAE7",
"*X c #40DBE5",
"=X c #01FDCC",
"-X c #47D5E9",
";X c None",
":X c None",
">X c #2DE3DF",
",X c #02FCCD",
"<X c None",
"1X c None",
"2X c None",
"3X c #49D4EC",
"4X c None",
"5X c #04FBCE",
"6X c #01FDCC",
"7X c #4BD3EA",
"8X c #01FDCC",
"9X c None",
"0X c #35DFE0",
"qX c #4FD3ED",
"wX c None",
"eX c #1BEFD6",
"rX c #01FDCD",
"tX c #08F9D0",
"yX c None",
"uX c #23E9DB",
"iX c #27E9DC",
"pX c #31E1E0",
"aX c #28E8DC",
"sX c #43D8E8",
"dX c None",
"fX c #4AD4EA",
"gX c #3FDAE5",
"hX c None",
"jX c #25EADC",
"kX c #10F7D2",
"lX c #0CF7CF",
"zX c None",
"xX c None",
"cX c #03FCCC",
"vX c None",
"bX c #01FDCC",
"nX c #01FDCB",
"mX c None",
"MX c None",
"NX c None",
"BX c None",
/* pixels */
"                e s yXe                 ",
"              z.(.i 6 V.F.              ",
"          MXd.sX, .X%XqXy.;XMX          ",
"        D ^ Z.d &X<.g 3X7XM P B.        ",
"    : N } ..[.G i.*. XT.#XXXT _.9XMX    ",
"    % - H E R dX        ; 4 '.-XfXwX    ",
"  O.& ] 1 /.iX= NX    NX+X3.*X1.Q.@X0.  ",
"  > !.W ) / +.$X&.x.%.E.7 V r 9 b.gX~.  ",
"  L I e.k <Xp.X.8 uX! 5 E U.` 7.O Z .   ",
"  hXb kX}.D.U j X ~ g.J ].t 0 { pX0Xk.  ",
"  K h.:.c _ =.a A.l 4. .2.+ #.^.q.>XBX  ",
"  K # Q @.-.2 v {.q vX!.eXc.mX1XjXaX`.  ",
"  ;.R.OX@.  zXp lX5.z a.n.x   1Xu.| o.  ",
"  l.@ rXF     4XL.s.y W.:X    m.w 6.,.  ",
"  f S @ =Xf.|.[ 5XP.Y I.G.|.oXu h >.O.  ",
"    |.f.=X@ w.H.3 Y.n S.xX2XtXo j.B     ",
"        ' M.nXbX< Y.r.,XcX).m t.:       ",
"          A J.6X$ Y.r.$ 8X$.v.          ",
"            MXC K.9.N.C.( MX            ",
"                8.F * 8.                "
};
