/* XPM */
static char *graphic[] = {
/* width height num_colors chars_per_pixel */
"24 24 319 2", 
/* colors */
"   c None",
".  c #4FD1EC",
"X  c #40D9E6",
"o  c None",
"O  c #04FCCC",
"+  c None",
"@  c None",
"#  c #22E9DB",
"$  c None",
"%  c #01FFCD",
"&  c #0CF7D0",
"*  c #01FDCC",
"=  c #48D5E9",
"-  c #27E9DB",
";  c #37DEE3",
":  c #23EBDB",
">  c None",
",  c None",
"<  c None",
"1  c #49D5E9",
"2  c #1DEED8",
"3  c #10F5D1",
"4  c #0EF6D1",
"5  c #01FDCB",
"6  c None",
"7  c #04FCCD",
"8  c None",
"9  c None",
"0  c #46D6E8",
"q  c None",
"w  c #1AF0D5",
"e  c #12F4D2",
"r  c #23EBD9",
"t  c #01FDCC",
"y  c #01FDCC",
"u  c None",
"i  c #01FDCD",
"p  c #01FDCD",
"a  c #03FDCD",
"s  c #43D6E7",
"d  c None",
"f  c #2DE6DD",
"g  c #1CEFD7",
"h  c None",
"j  c #01FDCD",
"k  c #05FBCD",
"l  c #04FCCF",
"z  c #51D3EC",
"x  c #23EBDB",
"c  c None",
"v  c None",
"b  c #3BDCE4",
"n  c #22EADC",
"m  c #22ECDB",
"M  c #08F8D0",
"N  c None",
"B  c None",
"V  c #2EE5E1",
"C  c #17F2D5",
"Z  c None",
"A  c #20EDD9",
"S  c #07FACE",
"D  c None",
"F  c #4AD4EB",
"G  c #4DD3EC",
"H  c None",
"J  c #4CD3EB",
"K  c #14F3D5",
"L  c #3BDFE3",
"P  c None",
"I  c None",
"U  c None",
"Y  c #2CE5DE",
"T  c #35E2E3",
"R  c #12F2D4",
"E  c None",
"W  c None",
"Q  c #45D7E8",
"!  c None",
"~  c #36E1E3",
"^  c None",
"/  c #11F5D3",
"(  c #34E0E1",
")  c #0DF5D0",
"_  c None",
"`  c None",
"'  c None",
"]  c #16F1D5",
"[  c #10F6D3",
"{  c None",
"}  c None",
"|  c #12F5D3",
" . c None",
".. c None",
"X. c #1EEED9",
"o. c None",
"O. c None",
"+. c #04FCCC",
"@. c #02FDCC",
"#. c #15F3D4",
"$. c None",
"%. c #51D1EE",
"&. c #0BF7D1",
"*. c None",
"=. c #49D5E9",
"-. c #3ADDE3",
";. c #1BF0D6",
":. c #28E9DC",
">. c None",
",. c None",
"<. c #2AE6DF",
"1. c None",
"2. c None",
"3. c None",
"4. c None",
"5. c #3CDCE4",
"6. c #38E1E4",
"7. c None",
"8. c #3CDCE6",
"9. c None",
"0. c None",
"q. c #0CF8D1",
"w. c #07F9CF",
"e. c None",
"r. c #11F3D4",
"t. c #44DAE8",
"y. c #10F4D1",
"u. c #37DFE4",
"i. c #33E1E1",
"p. c None",
"a. c #22EBDA",
"s. c #24E9DA",
"d. c #33E1E0",
"f. c #47D5EA",
"g. c None",
"h. c None",
"j. c None",
"k. c None",
"l. c #03FBCC",
"z. c #2CE5DD",
"x. c #32E4E0",
"c. c #28E7DB",
"v. c #44D8E7",
"b. c #19EFD5",
"n. c None",
"m. c #26EBDA",
"M. c #30E3E1",
"N. c None",
"B. c None",
"V. c #12F5D3",
"C. c #1AF1D5",
"Z. c #2AE6DC",
"A. c None",
"S. c None",
"D. c None",
"F. c None",
"G. c #10F4D3",
"H. c #1CEEDA",
"J. c #11F6D4",
"K. c #41D8E8",
"L. c #52D1EE",
"P. c #2DE5DE",
"I. c #2AE6DD",
"U. c #39DEE3",
"Y. c None",
"T. c #4AD5EA",
"R. c #1EEDD9",
"E. c #10F4D2",
"W. c #0EF5D2",
"Q. c #16F1D4",
"!. c #01FDCA",
"~. c None",
"^. c None",
"/. c None",
"(. c #4AD3EA",
"). c #1FECD8",
"_. c #2EE4DE",
"`. c #3EDCE6",
"'. c None",
"]. c None",
"[. c #01FDCD",
"{. c #21EBD9",
"}. c #15F4D5",
"|. c None",
" X c None",
".X c None",
"XX c None",
"oX c None",
"OX c None",
"+X c None",
"@X c #4ED1EC",
"#X c #1BF1D8",
"$X c #32E4E2",
"%X c #0EF8D3",
"&X c None",
"*X c #48D5EA",
"=X c #0DF8D2",
"-X c None",
";X c #25E9DA",
":X c #32E2E0",
">X c #0FF5D2",
",X c None",
"<X c #23EADA",
"1X c #01FDCA",
"2X c #01FDCD",
"3X c None",
"4X c #1BEFD7",
"5X c #01FDCD",
"6X c #28E8DC",
"7X c None",
"8X c #08F9CF",
"9X c None",
"0X c #3DDCE7",
"qX c None",
"wX c None",
"eX c #27E8DB",
"rX c None",
"tX c #02FCCB",
"yX c None",
"uX c None",
"iX c None",
"pX c #1CF0D8",
"aX c None",
"sX c None",
"dX c None",
"fX c #02FCCE",
"gX c #22EBDA",
"hX c None",
"jX c None",
"kX c #01FDCC",
"lX c None",
"zX c None",
"xX c #29E7DC",
"cX c #09F8D1",
"vX c None",
"bX c None",
"nX c None",
"mX c #47D5E9",
"MX c #01FDCD",
"NX c None",
"BX c #4BD3EA",
"VX c #31E1E1",
"CX c None",
"ZX c None",
"AX c None",
"SX c None",
"DX c None",
"FX c #1EEDD7",
"GX c #14F3D3",
"HX c #49D4EA",
"JX c None",
"KX c None",
"LX c None",
"PX c #01FDCD",
"IX c None",
"UX c #01FDCC",
"YX c #01FDCB",
"TX c #38DDE4",
"RX c None",
"EX c #2DE5DE",
"WX c None",
"QX c #26E9DC",
"!X c #20ECD8",
"~X c None",
"^X c #1EEDD8",
"/X c None",
"(X c #52D2F0",
")X c #3FDCE6",
"_X c #0DF9D0",
"`X c #24EAD9",
"'X c #02FCCC",
"]X c None",
"[X c #01FDCD",
"{X c #4FD3EB",
"}X c #0EF6D1",
"|X c None",
" o c #49D4E9",
".o c #2DE5E0",
"Xo c None",
"oo c None",
"Oo c None",
"+o c #45D6E9",
"@o c None",
"#o c #22EBD9",
"$o c None",
"%o c #22EBD9",
"&o c None",
"*o c None",
"=o c #04FBCD",
"-o c None",
";o c #01FDCC",
":o c #4DD2EA",
">o c None",
",o c None",
"<o c #3ADDE4",
"1o c #01FDCC",
"2o c #08F9CE",
"3o c #2EE3E0",
"4o c #20EDD8",
"5o c #25EADC",
"6o c #07FAD0",
"7o c #14F3D6",
"8o c None",
"9o c #06FACF",
"0o c #4DD2EB",
"qo c #41DBE7",
"wo c None",
"eo c #51D0ED",
"ro c None",
"to c #0DF7D1",
"yo c #3FDCE6",
"uo c #0AF8CF",
"io c None",
"po c #07FAD1",
"ao c None",
"so c None",
"do c None",
"fo c #01FDCC",
"go c #01FDCD",
/* pixels */
"                    do9X9Xdo                    ",
"                  ^.O.%.L.S.B                   ",
"                $of.(.0o. eo(Xso                ",
"            p.lXqot.0 mXHX:o{Xz W p.            ",
"          < sXTX5.0XK.0.$ 1 F J @XH *.          ",
"      >.^ P.$X( ; 9 }     } Y.=  oT.G RXN       ",
"    hX&o:.Z.EXM.bXp.        LXSXs +o=.BXD.oX    ",
"  doqXa.x ;XeX6XWXdo        do@o)XX v.Q *Xd do  ",
"  @ ' ,X.XA #os.QXc yX    P 1.u.-.b yo~X/.6 ZX  ",
"  JXGX#.] U H.X.%o# n u 7.Y V :Xi.6.n.<o8.`.jX  ",
"  JX[ e K }.3XOXg ).{.gX: c.I.f uXzXVX~ U.L *o  ",
"  JX_X4 y.V./ Z ro#XpX^X!Xr m._ -Xz..ox.d.T *o  ",
"  JX6ouo&.XX}XE.| > XoC.;.CX7Xm `X- e.+X_.3o*o  ",
"  JX7 S |Xdo]X%X) G.|.o v 9.w 2 4oN.doj.xX<.*o  ",
"  JXPX+.wo    IX'.=XW.iorXR Q.{ KX    $.<X5o*o  ",
"  JXPXy wX      D pouo8 F.3 J.D       ooFXR.DX  ",
"  ! MXt [XA.do  I O S aog.& toJX  do4.C b.4XB.  ",
"  q ~.1Xi 1o].o.JXkX=o-oh.2ow.JXo.,o>Xr.7oiXdo  ",
"      h NXfo% !.,.kX@.2./Xk l 8oM cXq.dXk.      ",
"        + , UXp ;ogo5 2. .'Xl.fX9o8XvX!         ",
"            E [.* 5 5 2.nX5 5 tXa &X            ",
"              JX XYXj 2.nXj YX X3.              ",
"                q aX2X..AX5X>oq                 ",
"                    ` OoOo`                     "
};
